# xmcd CD database file
#
# Track frame offsets:
#	150
#	12422
#	25447
#	40842
#	52467
#	66062
#	79377
#	94355
#	109292
#	122137
#	134037
#	144825
#	157055
#	169967
#	189950
#	206732
#	218850
#	231507
#	245347
#	260267
#	275652
#
# Disc length: 3856 seconds
#
# Revision: 0
# Processed by: cddbd v1.5.2PL0 Copyright (c) Steve Scherf et al.
# Submitted via: ACXtractor (MTCDDB.DLL V2003.07.15)
#
DISCID=4c0f0e15
DTITLE=Calhoun Twins - Starting New Memories
DYEAR=1999
DGENRE=Country
TTITLE0=Going to the Dogs
TTITLE1=Starting New Memories
TTITLE2=A Dallas Rainy Night
TTITLE3=Wake Me Early In The Morning
TTITLE4=A Statue Of A Fool
TTITLE5=Pretty Words
TTITLE6=Walking Peice Of Heaven
TTITLE7=This Is The First Day
TTITLE8=I Couldn't Care Less
TTITLE9=Make The World Go Away
TTITLE10=Steal Your Shoes
TTITLE11=I'd Rather Be Sorry
TTITLE12=Help Me Make It Through The Night
TTITLE13=Momma's Waiting
TTITLE14=For The Good Times
TTITLE15=Lonsome Time Of The Year
TTITLE16=Summer Comes On Sunday
TTITLE17=Bluest Heartache Of The Year
TTITLE18=You Wouldn't Know Love
TTITLE19=I'm So Lonesome I Could Cry
TTITLE20=L.A. International Airport
EXTD=ID3G:   2 YEAR: 1999
EXTT0=
EXTT1=
EXTT2=
EXTT3=
EXTT4=
EXTT5=
EXTT6=
EXTT7=
EXTT8=
EXTT9=
EXTT10=
EXTT11=
EXTT12=
EXTT13=
EXTT14=
EXTT15=
EXTT16=
EXTT17=
EXTT18=
EXTT19=
EXTT20=
PLAYORDER=
